<svg width="314" height="162" viewBox="0 0 314 162" fill="none" xmlns="http://www.w3.org/2000/svg">
<path d="M180.822 67.4611C170.355 67.4611 161.801 58.3513 161.801 47.2227C161.801 36.0941 170.362 26.9844 180.822 26.9844H187.16V67.4611H180.822ZM187.167 134.929H180.829C170.362 134.929 161.808 125.819 161.808 114.691C161.808 103.562 170.369 94.4525 180.829 94.4525H187.167V134.929ZM187.167 26.9844C187.167 12.1416 198.584 0 212.534 0H314V26.9844H187.167ZM313.993 67.4611V94.4455H187.16V67.4611H313.993ZM313.993 134.929V161.914H212.527C198.577 161.914 187.16 149.772 187.16 134.929H313.993Z" fill="black"/>
<path d="M0 26.9915V0H101.466C115.415 0 126.832 12.1416 126.832 26.9844H0V26.9915ZM0 94.4525V67.4681H126.832V94.4525H0ZM126.832 134.929C126.832 149.772 115.415 161.914 101.466 161.914H0V134.929H126.832ZM126.832 26.9915H133.171C143.638 26.9915 152.192 36.1012 152.192 47.2298C152.192 58.3584 143.631 67.4681 133.171 67.4681H126.832V26.9915ZM133.171 94.4525C143.638 94.4525 152.192 103.562 152.192 114.691C152.192 125.819 143.631 134.929 133.171 134.929H126.832V94.4525H133.171Z" fill="black"/>
</svg>
