<svg width="158" height="37" viewBox="0 0 158 37" fill="none" xmlns="http://www.w3.org/2000/svg">
<path d="M46.4625 32.6201C46.4407 32.391 46.3861 32.1947 46.2989 32.0421C46.2008 31.8894 46.0917 31.7694 45.939 31.6822C45.7972 31.5949 45.6337 31.5295 45.4483 31.4968C45.2629 31.4641 45.0666 31.4423 44.8594 31.4423C44.6521 31.4423 44.4668 31.4641 44.2814 31.5077C44.1069 31.5513 43.9542 31.6167 43.8233 31.6931C43.6925 31.7803 43.5943 31.8785 43.518 31.9984C43.4416 32.1184 43.4089 32.2493 43.4089 32.402C43.4089 32.5764 43.4525 32.7291 43.5289 32.8382C43.6052 32.9581 43.7252 33.0563 43.8778 33.1326C44.0305 33.209 44.2268 33.2853 44.4668 33.3398C44.6958 33.3944 44.9684 33.4489 45.2847 33.5034C45.5137 33.547 45.7427 33.5907 45.9717 33.6561C46.1898 33.7106 46.3971 33.7979 46.5715 33.896C46.746 34.0051 46.8878 34.136 46.9969 34.2995C47.1059 34.4631 47.1605 34.6812 47.1605 34.943C47.1605 35.2811 47.095 35.5537 46.9642 35.7718C46.8333 35.9899 46.6697 36.1644 46.4625 36.2953C46.2553 36.4261 46.0263 36.5134 45.7754 36.5679C45.5246 36.6224 45.2738 36.6443 45.0229 36.6443C44.6958 36.6443 44.4013 36.6115 44.1287 36.5461C43.856 36.4807 43.6161 36.3716 43.4089 36.2189C43.2017 36.0663 43.0381 35.87 42.9181 35.6191C42.7982 35.3683 42.7218 35.0629 42.7109 34.703H43.2453C43.2671 34.9866 43.3326 35.2156 43.4307 35.401C43.5289 35.5864 43.6597 35.7282 43.8124 35.8372C43.9651 35.9463 44.1505 36.0226 44.3577 36.0554C44.5649 36.099 44.7939 36.1208 45.0338 36.1208C45.2192 36.1208 45.4155 36.1099 45.6009 36.0772C45.7863 36.0445 45.9499 35.9899 46.1026 35.9027C46.2553 35.8154 46.3752 35.7064 46.4625 35.5755C46.5497 35.4446 46.5934 35.2592 46.5934 35.0411C46.5934 34.823 46.5388 34.6703 46.4298 34.5395C46.3207 34.4086 46.1789 34.3104 46.0045 34.245C45.83 34.1687 45.6337 34.1141 45.4046 34.0705C45.1865 34.0269 44.9575 33.9833 44.7176 33.9506C44.1069 33.8524 43.6379 33.6888 43.3217 33.4816C43.0054 33.2635 42.8418 32.9472 42.8418 32.511C42.8418 32.2166 42.8963 31.9657 43.0163 31.7585C43.1363 31.5513 43.2889 31.3986 43.4743 31.2678C43.6706 31.1478 43.8778 31.0606 44.1178 31.006C44.3577 30.9515 44.6085 30.9297 44.8484 30.9297C45.1102 30.9297 45.3719 30.9624 45.6228 31.0169C45.8736 31.0715 46.1026 31.1696 46.2989 31.2896C46.4952 31.4204 46.6588 31.5949 46.7897 31.813C46.9096 32.0312 46.9751 32.3038 46.986 32.6201H46.4516H46.4625Z" fill="white"/>
<path d="M45.0037 36.796C44.6657 36.796 44.3603 36.7632 44.0768 36.6978C43.7823 36.6324 43.5206 36.5124 43.3025 36.3488C43.0734 36.1852 42.8989 35.9671 42.7681 35.6945C42.6372 35.4328 42.5609 35.1056 42.5391 34.7239C42.5391 34.6803 42.55 34.6475 42.5827 34.6148C42.6154 34.5821 42.6481 34.5712 42.6917 34.5712H43.2261C43.3025 34.5712 43.3679 34.6257 43.3679 34.7021C43.3897 34.9638 43.4442 35.1819 43.5315 35.3455C43.6187 35.5091 43.7278 35.64 43.8696 35.7272C44.0113 35.8254 44.1749 35.8908 44.3603 35.9235C44.7202 35.9889 45.1564 36.0108 45.549 35.9235C45.7235 35.8908 45.8762 35.8363 46.0071 35.7708C46.1379 35.7054 46.2361 35.6072 46.3124 35.4873C46.3888 35.3673 46.4215 35.2146 46.4215 35.0401C46.4215 34.8657 46.3779 34.7348 46.3015 34.6366C46.2143 34.5276 46.0834 34.4403 45.9307 34.3749C45.7671 34.3095 45.5817 34.2549 45.3636 34.2113C45.1455 34.1677 44.9165 34.135 44.6766 34.0914C44.044 33.9823 43.5642 33.8187 43.2261 33.5897C42.8662 33.3498 42.6808 32.979 42.6808 32.4991C42.6808 32.1829 42.7463 31.8993 42.8771 31.6812C43.008 31.4631 43.1716 31.2777 43.3897 31.1468C43.5969 31.0159 43.8368 30.9178 44.0877 30.8633C44.6002 30.7433 45.1564 30.7542 45.6581 30.8633C45.9307 30.9178 46.1707 31.0269 46.3779 31.1577C46.596 31.2995 46.7814 31.4958 46.9122 31.7248C47.0431 31.9647 47.1194 32.2592 47.1304 32.6082C47.1304 32.6518 47.1194 32.6845 47.0867 32.7172C47.054 32.75 47.0213 32.7609 46.9777 32.7609H46.4433C46.367 32.7609 46.3015 32.7063 46.3015 32.63C46.2797 32.4228 46.2361 32.2483 46.1597 32.1174C46.0725 31.9866 45.9743 31.8884 45.8544 31.8012C45.7235 31.7248 45.5817 31.6703 45.4073 31.6376C45.0474 31.5721 44.633 31.5721 44.3058 31.6376C44.1422 31.6812 44.0004 31.7357 43.8914 31.8012C43.7823 31.8666 43.6951 31.9538 43.6296 32.052C43.5751 32.1501 43.5424 32.2592 43.5424 32.3792C43.5424 32.5209 43.5751 32.6409 43.6296 32.739C43.6951 32.8372 43.7932 32.9135 43.9241 32.9899C44.0659 33.0662 44.2513 33.1317 44.4694 33.1753C44.6984 33.2298 44.971 33.2843 45.2764 33.3389C45.5163 33.3825 45.7562 33.4261 45.9743 33.4915C46.2034 33.557 46.4215 33.6442 46.6069 33.7533C46.8032 33.8732 46.9559 34.0259 47.0758 34.2113C47.1958 34.3967 47.2612 34.6475 47.2612 34.9311C47.2612 35.291 47.1849 35.5963 47.0431 35.8363C46.9013 36.0762 46.7159 36.2616 46.4978 36.4034C46.2797 36.5451 46.0289 36.6433 45.7562 36.6978C45.4945 36.7523 45.2328 36.7741 44.971 36.7741L45.0037 36.796ZM42.8444 34.8547C42.8771 35.1274 42.9317 35.3673 43.0298 35.5636C43.1389 35.7926 43.2916 35.9671 43.477 36.1089C43.6623 36.2507 43.8914 36.3488 44.1422 36.4034C44.6111 36.5124 45.1673 36.5342 45.7344 36.4252C45.9634 36.3815 46.1816 36.2943 46.3779 36.1743C46.5633 36.0544 46.7159 35.9017 46.8359 35.7054C46.945 35.5091 47.0104 35.2583 47.0104 34.9529C47.0104 34.7239 46.9668 34.5385 46.8686 34.3858C46.7705 34.2331 46.6505 34.1132 46.4978 34.0259C46.3342 33.9278 46.1488 33.8514 45.9416 33.7969C45.7235 33.7424 45.5054 33.6878 45.2655 33.6551C44.9492 33.6006 44.6766 33.5461 44.4366 33.4915C44.1967 33.437 43.9895 33.3607 43.815 33.2734C43.6405 33.1862 43.4988 33.0662 43.4115 32.9353C43.3134 32.7936 43.2697 32.6191 43.2697 32.4119C43.2697 32.2265 43.3134 32.0629 43.4006 31.932C43.4879 31.8012 43.5969 31.6812 43.7496 31.583C43.8914 31.4958 44.0659 31.4195 44.2513 31.3758C44.6111 31.2886 45.0801 31.2886 45.4727 31.3649C45.6799 31.4086 45.8544 31.474 46.018 31.5721C46.1816 31.6703 46.3124 31.8121 46.4215 31.9756C46.5087 32.1174 46.5633 32.281 46.596 32.4773H46.8468C46.825 32.2483 46.7705 32.0411 46.6723 31.8884C46.5633 31.6921 46.4106 31.5394 46.2361 31.4195C46.0507 31.2995 45.8435 31.2123 45.6036 31.1577C45.1455 31.0487 44.633 31.0487 44.164 31.1577C43.9459 31.2013 43.7387 31.2886 43.5642 31.3976C43.3897 31.5067 43.2588 31.6594 43.1498 31.8339C43.0516 32.0193 42.9971 32.2374 42.9971 32.51C42.9971 32.9026 43.128 33.1753 43.4115 33.3607C43.706 33.5679 44.164 33.7097 44.7529 33.8078C44.9928 33.8514 45.2219 33.895 45.44 33.9278C45.6799 33.9714 45.8871 34.0259 46.0616 34.1132C46.2579 34.2004 46.4106 34.3095 46.5414 34.4512C46.6723 34.6039 46.7377 34.8002 46.7377 35.0401C46.7377 35.2801 46.6832 35.4873 46.5742 35.6509C46.476 35.8144 46.3342 35.9344 46.1597 36.0326C45.9962 36.1198 45.8108 36.1852 45.6145 36.218C45.1782 36.2943 44.7093 36.2834 44.3167 36.207C44.0877 36.1634 43.8914 36.0762 43.7169 35.9671C43.5424 35.8472 43.4006 35.6836 43.2916 35.4764C43.2043 35.3019 43.1389 35.0947 43.1062 34.8547H42.8444Z" fill="white"/>
<path d="M50.0195 31.0714H50.5539V34.016L53.8583 31.0714H54.6217L52.0807 33.318L54.7962 36.5134H54.0437L51.6663 33.6997L50.543 34.6703V36.5025H50.0195V31.0605V31.0714Z" fill="white"/>
<path d="M54.7982 36.6544H54.0457C54.0457 36.6544 53.9584 36.6325 53.9366 36.5998L51.6573 33.8952L50.6976 34.735V36.5017C50.6976 36.5017 50.6976 36.578 50.6649 36.5998C50.6322 36.6216 50.5995 36.6434 50.5668 36.6434H50.0324C49.9561 36.6434 49.8906 36.578 49.8906 36.5017V31.0597C49.8906 31.0597 49.8906 30.9834 49.9233 30.9616C49.9561 30.9398 49.9888 30.918 50.0215 30.918H50.5559C50.6322 30.918 50.6976 30.9834 50.6976 31.0597V33.6771L53.7621 30.9507C53.7621 30.9507 53.8276 30.918 53.8603 30.918H54.6237C54.6891 30.918 54.7436 30.9507 54.7546 31.0161C54.7764 31.0707 54.7546 31.1361 54.7109 31.1797L52.279 33.339L54.9072 36.4253C54.9072 36.4253 54.9509 36.5344 54.929 36.578C54.9072 36.6325 54.8527 36.6653 54.7982 36.6653V36.6544ZM54.1111 36.3599H54.4819L51.9736 33.4045C51.9191 33.3499 51.93 33.2518 51.9845 33.1973L54.2311 31.2015H53.9039L50.6431 34.1024C50.6431 34.1024 50.545 34.1461 50.4904 34.1242C50.4359 34.1024 50.4032 34.0479 50.4032 33.9934V31.2015H50.1633V36.349H50.4141V34.6586C50.4141 34.6586 50.4141 34.5714 50.4577 34.5496L51.581 33.579C51.581 33.579 51.6464 33.5462 51.6901 33.5462C51.7337 33.5462 51.7664 33.568 51.7882 33.6008L54.122 36.3599H54.1111Z" fill="white"/>
<path d="M57.4453 31.0705H57.9797V36.5124H57.4562V31.0705H57.4453Z" fill="white"/>
<path d="M57.9808 36.6552H57.4465C57.3701 36.6552 57.3047 36.5897 57.3047 36.5134V31.0715C57.3047 31.0715 57.3047 30.9951 57.3374 30.9733C57.3701 30.9515 57.4028 30.9297 57.4356 30.9297H57.9699C58.0463 30.9297 58.1117 30.9951 58.1117 31.0715V36.5134C58.1117 36.5134 58.1117 36.5897 58.079 36.6115C58.0463 36.6334 58.0136 36.6552 57.9808 36.6552ZM57.8391 36.3607V31.2132H57.5882V36.3607H57.8391Z" fill="white"/>
<path d="M61.1328 31.0703H61.7653L65.3424 35.7161H65.3533V31.0703H65.8877V36.5122H65.277L61.6781 31.8664H61.6672V36.5122H61.1437V31.0703H61.1328Z" fill="white"/>
<path d="M65.8997 36.6552H65.2781C65.2781 36.6552 65.1909 36.6334 65.1582 36.6006L61.7992 32.2711V36.5134C61.7992 36.5134 61.7992 36.5897 61.7665 36.6115C61.7338 36.6334 61.7011 36.6552 61.6683 36.6552H61.134C61.0576 36.6552 60.9922 36.5897 60.9922 36.5134V31.0715C60.9922 31.0715 60.9922 30.9951 61.0249 30.9733C61.0576 30.9515 61.0903 30.9297 61.1231 30.9297H61.7556C61.7556 30.9297 61.8428 30.9515 61.8755 30.9842L65.2018 35.3138V31.0715C65.2018 30.9951 65.2672 30.9297 65.3436 30.9297H65.8779C65.9543 30.9297 66.0197 30.9951 66.0197 31.0715V36.5134C66.0197 36.5134 66.0197 36.5897 65.987 36.6115C65.9543 36.6334 65.9216 36.6552 65.8888 36.6552H65.8997ZM65.758 36.3607V31.2132H65.5071V35.7173C65.5071 35.7936 65.4417 35.859 65.3654 35.859C65.3217 35.859 65.2672 35.8372 65.2345 35.8045L61.7011 31.2132H61.2757V36.3607H61.5266V31.8567C61.5266 31.8567 61.5266 31.7803 61.5593 31.7585C61.6138 31.704 61.7447 31.704 61.7883 31.7694L65.3436 36.3607H65.758Z" fill="white"/>
<path d="M73.1328 31.0703H73.6672V33.3714H77.3642V31.0703H77.8986V36.5122H77.3751V33.8949H73.6672V36.5122H73.1437V31.0703H73.1328Z" fill="white"/>
<path d="M77.8966 36.6552H77.3623C77.2859 36.6552 77.2205 36.5897 77.2205 36.5134V34.0378H73.807V36.5134C73.807 36.5134 73.807 36.5897 73.7743 36.6115C73.7416 36.6334 73.7089 36.6552 73.6761 36.6552H73.1418C73.0654 36.6552 73 36.5897 73 36.5134V31.0715C73 31.0715 73 30.9951 73.0327 30.9733C73.0654 30.9515 73.0981 30.9297 73.1309 30.9297H73.6652C73.7416 30.9297 73.807 30.9951 73.807 31.0715V33.2308H77.2096V31.0715C77.2096 30.9951 77.275 30.9297 77.3514 30.9297H77.8857C77.9621 30.9297 78.0275 30.9951 78.0275 31.0715V36.5134C78.0275 36.5134 78.0275 36.5897 77.9948 36.6115C77.9621 36.6334 77.9294 36.6552 77.8966 36.6552ZM77.7549 36.3607V31.2132H77.504V33.3726C77.504 33.4489 77.4386 33.5143 77.3623 33.5143H73.6652C73.5889 33.5143 73.5235 33.4489 73.5235 33.3726V31.2132H73.2835V36.3607H73.5344V33.8851C73.5344 33.8851 73.5344 33.8088 73.5671 33.787C73.5998 33.7652 73.6325 33.7434 73.6652 33.7434H77.3623C77.4386 33.7434 77.504 33.8088 77.504 33.8851V36.3607H77.7549Z" fill="white"/>
<path d="M81.0703 31.0703H85.1381V31.5938H81.5938V33.4368H85.0073V33.9603H81.5938V35.9997H85.1927V36.5232H81.0703V31.0703Z" fill="white"/>
<path d="M85.2047 36.6552H81.0715C80.9951 36.6552 80.9297 36.5897 80.9297 36.5134V31.0715C80.9297 31.0715 80.9297 30.9951 80.9624 30.9733C80.9951 30.9515 81.0278 30.9297 81.0606 30.9297H85.1284C85.2047 30.9297 85.2701 30.9951 85.2701 31.0715V31.5949C85.2701 31.6713 85.2047 31.7367 85.1284 31.7367H81.7367V33.2853H84.9975C85.0738 33.2853 85.1393 33.3507 85.1393 33.4271V33.9506C85.1393 34.0269 85.0738 34.0923 84.9975 34.0923H81.7367V35.8481H85.1938C85.2701 35.8481 85.3356 35.9136 85.3356 35.9899V36.5134C85.3356 36.5134 85.3356 36.5897 85.3029 36.6225C85.2811 36.6552 85.2374 36.6661 85.2047 36.6661V36.6552ZM81.2241 36.3607H85.0629V36.1317H81.6058C81.5295 36.1317 81.4641 36.0663 81.4641 35.9899V33.9506C81.4641 33.8742 81.5295 33.8088 81.6058 33.8088H84.8666V33.5798H81.6058C81.5295 33.5798 81.4641 33.5143 81.4641 33.438V31.5949C81.4641 31.5186 81.5295 31.4532 81.6058 31.4532H84.9975V31.2241H81.2241V36.3716V36.3607Z" fill="white"/>
<path d="M91.4822 34.8546H88.7885L88.1014 36.5122H87.5234L89.8354 31.0703H90.4571L92.78 36.5122H92.1693L91.4822 34.8546ZM90.1517 31.6265L89.0175 34.3311H91.2859L90.1626 31.6265H90.1517Z" fill="white"/>
<path d="M92.7899 36.6552H92.1792C92.1247 36.6552 92.0701 36.6224 92.0483 36.5679L91.394 35.0084H88.8966L88.2422 36.5679C88.2422 36.5679 88.1659 36.6552 88.1114 36.6552H87.5334C87.5334 36.6552 87.4352 36.6334 87.4134 36.5897C87.3916 36.5461 87.3807 36.5025 87.4025 36.4589L89.7145 31.0169C89.7145 31.0169 89.7909 30.9297 89.8454 30.9297H90.467C90.5215 30.9297 90.5761 30.9624 90.5979 31.0169L92.9208 36.4589C92.9208 36.4589 92.9317 36.557 92.9099 36.6006C92.8881 36.6443 92.8335 36.6661 92.7899 36.6661V36.6552ZM92.5609 36.3607L90.358 31.2132H89.9326L87.7406 36.3607H87.9914L88.6458 34.8012C88.6458 34.8012 88.7221 34.714 88.7766 34.714H91.4703C91.5249 34.714 91.5794 34.7467 91.6012 34.8012L92.2555 36.3607H92.5609ZM91.274 34.4849H89.0056C89.0056 34.4849 88.9075 34.4631 88.8857 34.4195C88.8639 34.3759 88.853 34.3323 88.8748 34.2777L90.009 31.5731C90.009 31.5731 90.0853 31.4859 90.1398 31.4859C90.1944 31.4859 90.2489 31.5186 90.2707 31.5731L91.394 34.2777C91.394 34.2777 91.4049 34.3759 91.3831 34.4086C91.3504 34.4522 91.3067 34.474 91.2631 34.474L91.274 34.4849ZM89.2238 34.1905H91.045L90.1398 32.0093L89.2238 34.1905Z" fill="white"/>
<path d="M95.3672 31.0703H95.9016V35.9997H99.1515V36.5232H95.3781V31.0812L95.3672 31.0703Z" fill="white"/>
<path d="M99.1495 36.6552H95.3761C95.2998 36.6552 95.2344 36.5897 95.2344 36.5134V31.0715C95.2344 31.0715 95.2344 30.9951 95.2671 30.9733C95.2998 30.9515 95.3325 30.9297 95.3652 30.9297H95.8996C95.976 30.9297 96.0414 30.9951 96.0414 31.0715V35.8481H99.1386C99.2149 35.8481 99.2804 35.9136 99.2804 35.9899V36.5134C99.2804 36.5134 99.2804 36.5897 99.2477 36.6225C99.2258 36.6552 99.1822 36.6661 99.1495 36.6661V36.6552ZM98.9968 36.3607V36.1317H95.8887C95.8124 36.1317 95.7469 36.0663 95.7469 35.9899V31.2132H95.507V36.3607H98.9968Z" fill="white"/>
<path d="M100.492 31.584V31.0605H105.029V31.584H103.022V36.5134H102.499V31.584H100.492Z" fill="white"/>
<path d="M103.019 36.6552H102.484C102.408 36.6552 102.343 36.5897 102.343 36.5134V31.7367H100.478C100.401 31.7367 100.336 31.6713 100.336 31.5949V31.0715C100.336 30.9951 100.401 30.9297 100.478 30.9297H105.014C105.091 30.9297 105.156 30.9951 105.156 31.0715V31.5949C105.156 31.6713 105.091 31.7367 105.014 31.7367H103.15V36.5134C103.15 36.5134 103.15 36.5897 103.117 36.6115C103.084 36.6334 103.051 36.6552 103.019 36.6552ZM102.877 36.3607V31.584C102.877 31.584 102.877 31.5077 102.91 31.4859C102.942 31.4641 102.975 31.4423 103.008 31.4423H104.873V31.2132H100.63V31.4423H102.484C102.561 31.4423 102.626 31.5077 102.626 31.584V36.3607H102.877Z" fill="white"/>
<path d="M107.637 31.0705H108.171V33.3716H111.868V31.0705H112.403V36.5124H111.879V33.895H108.171V36.5124H107.648V31.0705H107.637Z" fill="white"/>
<path d="M112.401 36.6552H111.866C111.79 36.6552 111.724 36.5897 111.724 36.5134V34.0378H108.311V36.5134C108.311 36.5134 108.311 36.5897 108.278 36.6115C108.245 36.6334 108.213 36.6552 108.18 36.6552H107.646C107.569 36.6552 107.504 36.5897 107.504 36.5134V31.0715C107.504 31.0715 107.504 30.9951 107.537 30.9733C107.569 30.9515 107.602 30.9297 107.635 30.9297H108.169C108.245 30.9297 108.311 30.9951 108.311 31.0715V33.2308H111.713V31.0715C111.713 30.9951 111.779 30.9297 111.855 30.9297H112.39C112.466 30.9297 112.531 30.9951 112.531 31.0715V36.5134C112.531 36.5134 112.531 36.5897 112.499 36.6115C112.466 36.6334 112.433 36.6552 112.401 36.6552ZM112.248 36.3607V31.2132H111.997V33.3726C111.997 33.4489 111.932 33.5143 111.855 33.5143H108.158C108.082 33.5143 108.016 33.4489 108.016 33.3726V31.2132H107.777V36.3607H108.027V33.8851C108.027 33.8851 108.027 33.8088 108.06 33.787C108.093 33.7652 108.126 33.7434 108.158 33.7434H111.855C111.932 33.7434 111.997 33.8088 111.997 33.8851V36.3607H112.248Z" fill="white"/>
<path d="M13.6007 10.7596C14.1726 10.3338 14.6362 9.80968 14.9805 9.20065C15.4624 8.36596 15.7057 7.44634 15.7057 6.46727C15.7057 4.93255 15.2385 3.64654 14.3162 2.64321C13.6932 1.95896 12.9242 1.43485 12.0324 1.08302C11.1575 0.738465 10.38 0.541924 9.72663 0.501887C9.10975 0.44244 8.21666 0.412109 7.07292 0.412109H0.182511C0.0815217 0.412109 0 0.493395 0 0.594092V22.6661C0 22.7668 0.0815217 22.8481 0.182511 22.8481H7.27855C8.49772 22.8481 9.40785 22.8275 9.97972 22.7887C10.5954 22.7474 11.34 22.5836 12.1942 22.2997C13.0763 21.9928 13.8988 21.516 14.635 20.8839C16.0476 19.6828 16.7643 18.0001 16.7643 15.8843C16.7643 13.4336 15.6996 11.7108 13.6007 10.7596ZM6.05572 14.0183H8.48556C10.0028 14.0183 10.7098 14.4988 10.7098 15.5324C10.7098 16.7056 9.99432 17.2516 8.45636 17.2516H6.05572V14.0183ZM7.80905 8.6547H6.05572V6.00868H7.83825C9.64998 6.00868 9.64998 6.938 9.64998 7.28741C9.64998 7.66108 9.64998 8.6547 7.80783 8.6547H7.80905Z" fill="white"/>
<path d="M29.0655 0C25.1001 0 21.9037 1.54806 19.5676 4.60173C18.902 5.46675 18.4092 6.31722 18.105 7.12522C17.5222 8.60777 17.2266 10.2129 17.2266 11.8932C17.2266 15.073 18.4032 17.7967 20.7247 19.9914C23.0402 22.1594 25.8362 23.2586 29.0363 23.2586C32.2363 23.2586 35.1735 22.1388 37.4695 19.9283C39.7679 17.696 40.9336 14.9044 40.9336 11.6299C40.9336 8.35542 39.7679 5.59171 37.4695 3.36061C35.1735 1.13072 32.3458 0 29.0655 0ZM29.1531 17.6596C27.5044 17.6596 26.1416 17.07 25.1025 15.9065C24.05 14.709 23.5159 13.2507 23.5159 11.5704C23.5159 9.89014 24.0391 8.51071 25.0709 7.3533C26.1112 6.18862 27.4654 5.59778 29.0934 5.59778C30.7214 5.59778 32.0331 6.19711 33.0552 7.37999C34.1076 8.57744 34.6418 10.0163 34.6418 11.6578C34.6418 13.2993 34.1174 14.7102 33.0844 15.9065C32.0635 17.07 30.7409 17.6596 29.1518 17.6596H29.1531Z" fill="white"/>
<path d="M61.2143 0.411279H55.5212C55.4725 0.411279 55.425 0.430691 55.391 0.465874C55.3569 0.501057 55.3374 0.548373 55.3386 0.596902L55.5564 13.1925L47.7267 0.497418C47.6939 0.444036 47.6342 0.410066 47.571 0.410066H42.4911C42.3901 0.410066 42.3086 0.491352 42.3086 0.592049V22.6641C42.3086 22.7648 42.3901 22.8461 42.4911 22.8461H48.183C48.2317 22.8461 48.2791 22.8267 48.3132 22.7915C48.3472 22.7575 48.3667 22.7102 48.3655 22.6617L48.2292 10.4737L55.9507 22.7599C55.9847 22.8133 56.0419 22.8449 56.1052 22.8449H61.2143C61.3153 22.8449 61.3968 22.7636 61.3968 22.6629V0.593262C61.3968 0.492565 61.3153 0.411279 61.2143 0.411279Z" fill="white"/>
<path d="M82.8192 0.412109H70.3622C70.2612 0.412109 70.1797 0.493395 70.1797 0.594092V22.6661C70.1797 22.7668 70.2612 22.8481 70.3622 22.8481H82.8192C82.9202 22.8481 83.0017 22.7668 83.0017 22.6661V17.4323C83.0017 17.3316 82.9202 17.2503 82.8192 17.2503H76.2354V14.2525H82.6136C82.7146 14.2525 82.7961 14.1712 82.7961 14.0705V8.83668C82.7961 8.73599 82.7146 8.6547 82.6136 8.6547H76.2354V6.00868H82.8192C82.9202 6.00868 83.0017 5.92739 83.0017 5.82669V0.594092C83.0017 0.493395 82.9202 0.412109 82.8192 0.412109Z" fill="white"/>
<path d="M96.8046 17.2484H90.5445V0.592139C90.5445 0.491442 90.4629 0.410156 90.3619 0.410156H84.4364C84.3354 0.410156 84.2539 0.491442 84.2539 0.592139V22.6642C84.2539 22.7649 84.3354 22.8462 84.4364 22.8462H96.8046C96.9056 22.8462 96.9871 22.7649 96.9871 22.6642V17.4304C96.9871 17.3297 96.9056 17.2484 96.8046 17.2484Z" fill="white"/>
<path d="M110.849 17.2503H104.587V0.594092C104.587 0.493395 104.506 0.412109 104.405 0.412109H98.4794C98.3784 0.412109 98.2969 0.493395 98.2969 0.594092V22.6661C98.2969 22.7668 98.3784 22.8481 98.4794 22.8481H110.848C110.949 22.8481 111.03 22.7668 111.03 22.6661V17.4323C111.03 17.3316 110.949 17.2503 110.848 17.2503H110.849Z" fill="white"/>
<path d="M118.299 0.410156H112.374C112.273 0.410156 112.191 0.491633 112.191 0.592139V22.6642C112.191 22.7647 112.273 22.8462 112.374 22.8462H118.299C118.4 22.8462 118.482 22.7647 118.482 22.6642V0.592139C118.482 0.491633 118.4 0.410156 118.299 0.410156Z" fill="white"/>
<path d="M131.718 0C127.752 0 124.557 1.54806 122.22 4.60173C121.553 5.46797 121.062 6.31722 120.757 7.12522C120.175 8.60777 119.879 10.2116 119.879 11.8932C119.879 15.073 121.055 17.7967 123.378 19.9914C125.694 22.1594 128.49 23.2586 131.689 23.2586C134.887 23.2586 137.825 22.1388 140.122 19.9283C142.421 17.696 143.587 14.9044 143.587 11.6299C143.587 8.35542 142.421 5.59171 140.122 3.36061C137.826 1.13193 134.998 0.00121322 131.718 0.00121322V0ZM131.807 17.6596C130.158 17.6596 128.795 17.07 127.756 15.9065C126.704 14.7078 126.169 13.2495 126.169 11.5704C126.169 9.89135 126.693 8.51071 127.724 7.3533C128.765 6.18862 130.119 5.59778 131.747 5.59778C133.375 5.59778 134.688 6.19711 135.709 7.38121C136.762 8.57865 137.297 10.0175 137.297 11.659C137.297 13.3005 136.772 14.7115 135.739 15.9077C134.718 17.0712 133.394 17.6608 131.807 17.6608V17.6596Z" fill="white"/>
<path d="M157.817 0.412109H143.331C143.23 0.412109 143.148 0.493395 143.148 0.594092V5.82791C143.148 5.9286 143.23 6.00989 143.331 6.00989H147.444V22.6661C147.444 22.7668 147.525 22.8481 147.626 22.8481H153.552C153.653 22.8481 153.734 22.7668 153.734 22.6661V6.00868H157.817C157.918 6.00868 158 5.92739 158 5.82669V0.594092C158 0.493395 157.918 0.412109 157.817 0.412109Z" fill="white"/>
</svg>
